# xmcd CD database file
#
# Track frame offsets:
#	150
#	10562
#	21910
#	29605
#	43407
#	50772
#	58290
#	71050
#	79582
#	89232
#	99415
#	107132
#	119340
#	130222
#	141537
#	149622
#	161152
#	174362
#	185280
#	196095
#
# Disc length: 2763 seconds
#
# Revision: 0
# Processed by: cddbd v1.5PL3 Copyright (c) Steve Scherf et al.
# Submitted via: CDex 1.50
#
DISCID=2e0ac914
DTITLE=Joanie Sommers - Look out! it's
DYEAR=1900
DGENRE=Jazz
TTITLE0=I;ll close my eyes
TTITLE1=Cherokee
TTITLE2=I'm in love
TTITLE3=This Heart of Mine
TTITLE4=Look out!
TTITLE5=The Best thing for you
TTITLE6=Detour ahead
TTITLE7=I See your face before me
TTITLE8=You better go now
TTITLE9=A second chance
TTITLE10=You'd be so nice to come home to
TTITLE11=I concentrate on you
TTITLE12=I feel a song comin' on
TTITLE13=This can't be love
TTITLE14=Daddy
TTITLE15=The best is yet to come
TTITLE16=When the sun comes out
TTITLE17=Dear heart
TTITLE18=Once
TTITLE19=WHen sunny gets blue
EXTD=
EXTT0=
EXTT1=
EXTT2=
EXTT3=
EXTT4=
EXTT5=
EXTT6=
EXTT7=
EXTT8=
EXTT9=
EXTT10=
EXTT11=
EXTT12=
EXTT13=
EXTT14=
EXTT15=
EXTT16=
EXTT17=
EXTT18=
EXTT19=
PLAYORDER=
